P3
# CREATOR: GIMP PNM Filter Version 1.1
5 1 
255
117 
64 
22
117 
62 
21
117 
62 
21
119 
61 
21 
120 
61 
19


